<svg width="800" height="800" viewBox="0 0 800 800" fill="none" xmlns="http://www.w3.org/2000/svg">
<path fill-rule="evenodd" clip-rule="evenodd" d="M666.667 33.333C721.897 33.333 766.667 78.1047 766.667 133.333V666.666C766.667 721.896 721.897 766.666 666.667 766.666H133.333C78.1049 766.666 33.3333 721.896 33.3333 666.666V133.333C33.3333 78.1047 78.1049 33.333 133.333 33.333H666.667ZM666.667 99.9997C685.077 99.9997 700 114.924 700 133.333V666.666C700 685.076 685.077 700 666.667 700H500V466.663H569.207C583.553 466.663 596.29 457.483 600.83 443.87L615.597 399.57C620.993 383.38 608.943 366.663 591.88 366.663H500V299.997C500 283.33 516.667 266.664 533.333 266.664H600C618.41 266.664 633.333 251.74 633.333 233.33V210.464C633.333 199.697 626.457 190.043 616.043 187.295C572.35 175.765 533.333 175.765 533.333 175.765C450 175.765 400 233.33 400 283.33V366.663H333.333C314.924 366.663 300 381.586 300 399.996V433.33C300 451.74 314.924 466.663 333.333 466.663H400V700H133.333C114.924 700 99.9999 685.076 99.9999 666.666V133.333C99.9999 114.924 114.924 99.9997 133.333 99.9997H666.667Z" fill="#AFAFAF"/>
</svg>
