<svg width="800" height="800" viewBox="0 0 800 800" fill="none" xmlns="http://www.w3.org/2000/svg">
<path d="M784.865 364.65L434.865 14.65C425.103 4.8875 412.303 0 399.515 0C386.728 0 373.928 4.8875 364.165 14.65L14.1654 364.65C-5.35962 384.225 -4.38462 414.85 15.1404 434.375C34.7154 454 63.3279 456.888 82.9154 437.3L99.9904 420.212V750C99.9904 777.637 122.353 800 149.99 800H349.99V600H449.99V800H649.99C677.628 800 699.99 777.637 699.99 750V421.188L714.928 436.125C734.453 455.65 764.29 453.9 783.878 434.363C803.415 414.85 804.44 384.175 784.865 364.65Z" fill="#AFAFAF"/>
</svg>
