<svg width="614" height="800" viewBox="0 0 614 800" fill="none" xmlns="http://www.w3.org/2000/svg">
<path d="M54.8422 33.9011C-0.126517 69.5511 -10.9249 180.987 9.82818 271.81C25.9907 342.539 60.3532 437.415 118.297 526.756C172.806 610.803 248.855 686.165 306.842 729.768C381.306 785.756 487.458 821.343 542.427 785.693C570.222 767.667 611.517 718.415 613.402 709.578C613.402 709.578 589.186 672.24 583.872 664.046L502.666 538.835C496.631 529.531 458.788 538.035 439.563 548.924C413.63 563.618 389.747 603.043 389.747 603.043C371.966 613.317 357.072 603.081 325.953 588.759C287.708 571.162 244.708 516.487 210.484 466.967C179.227 415.524 146.841 353.964 146.372 311.867C145.986 277.614 142.714 259.842 159.347 247.795C159.347 247.795 205.084 242.067 229.077 224.382C246.859 211.27 270.058 180.185 264.023 170.879L182.817 45.6698C177.503 37.4761 153.288 0.138562 153.288 0.138562C144.448 -1.74425 82.6375 15.8745 54.8422 33.9011Z" fill="#AFAFAF"/>
</svg>
