<svg width="800" height="800" viewBox="0 0 800 800" fill="none" xmlns="http://www.w3.org/2000/svg">
<path fill-rule="evenodd" clip-rule="evenodd" d="M659.427 130.608C671.043 127.855 679.143 125.148 685.78 122.305C695.08 118.32 702.79 113.547 714.973 105.508C725.21 98.7513 738.33 98.1629 749.13 103.976C759.93 109.788 766.667 121.063 766.667 133.328C766.667 169.359 762.177 198.891 751.783 224.88C743.037 246.74 730.75 264.495 716.053 280.656C709.847 392.76 677.397 480.796 627.787 547.493C576.367 616.623 507.953 660.893 435.837 685.686C363.93 710.403 287.954 715.926 219.89 707.556C152.272 699.243 89.768 676.856 46.2017 642.973C34.271 633.693 30.0771 617.546 35.9837 603.633C41.8904 589.72 56.4187 581.523 71.3814 583.663C114.247 589.786 155.51 580.04 189.44 566.106C182.761 562.473 176.463 558.54 170.609 554.486C139.692 533.083 114.747 504.026 103.519 481.57C98.8727 472.28 98.8247 461.35 103.389 452.02C105.744 447.203 109.187 443.1 113.368 439.97C68.2257 402.713 49.9997 351.183 49.9997 316.662C49.9997 306.397 54.729 296.705 62.8197 290.388C66.2217 287.732 70.0584 285.797 74.1027 284.632C70.7247 274.74 68.1034 264.747 66.1054 255.072C57.2464 212.176 58.0327 163.761 67.6617 125.244C70.9567 112.063 81.9214 102.202 95.3764 100.317C108.831 98.4326 122.083 104.903 128.873 116.671C164.79 178.927 231.039 216.981 292.695 239.522C321.683 250.12 348.53 256.874 368.653 261.026C372.997 220.339 384.357 186.786 401.793 160.137C424.797 124.977 456.88 104.175 491.333 94.8989C550.757 78.9023 616.693 97.1269 659.427 130.608ZM358.28 326.948C335.443 322.362 304.057 314.658 269.804 302.136C224.563 285.596 172.029 259.806 128.024 219.857C128.812 227.208 129.93 234.497 131.394 241.588C138.769 277.299 152.473 297.299 164.907 303.516C180.114 311.12 187.161 328.95 181.262 344.896C173.276 366.486 152.27 368.256 133.184 363.486C148.534 386.5 176.126 409.446 222.146 417.116C238.019 419.763 249.736 433.37 249.995 449.46C250.255 465.55 238.983 479.526 223.204 482.683L194.188 488.486C198.627 492.343 203.433 496.126 208.557 499.673C231.787 515.756 255.112 522.693 275.249 517.66C290.33 513.89 306.016 521.043 313.054 534.906C320.093 548.766 316.615 565.653 304.673 575.603C283.209 593.47 258.142 607.806 233.019 619.703C221.225 625.29 208.045 630.803 193.73 635.656C204.739 638.006 216.195 639.933 228.026 641.39C287.045 648.646 352.737 643.753 414.163 622.64C475.38 601.596 531.963 564.616 574.297 507.706C616.567 450.873 646.067 372.223 650.023 265.43C650.333 257.022 653.813 249.043 659.763 243.093C674.75 228.105 687.137 210.925 693.23 190.476C682.567 193.801 670.56 196.678 656.26 199.412C645.41 201.486 634.24 198.052 626.43 190.242C600.947 164.758 550.547 147.999 508.663 159.274C488.953 164.58 471.037 176.067 457.58 196.635C443.843 217.634 433.333 250.348 433.333 299.996C433.333 309.429 429.337 318.42 422.337 324.74C405.737 339.723 377.8 330.867 358.28 326.948Z" fill="#AFAFAF"/>
</svg>
